<svg xmlns="http://www.w3.org/2000/svg" width="46" height="71">
    <defs>
        <filter id="a">
            <feFlood flood-color="#FFF" flood-opacity="1" result="floodOut"/>
            <feComposite in="floodOut" in2="SourceGraphic" operator="atop" result="compOut"/>
            <feBlend in="compOut" in2="SourceGraphic"/>
        </filter>
    </defs>
    <path fill="#B4E0FF" fill-rule="evenodd" d="M44.317 22.27H29.16c-.285 0-.475-.191-.475-.478v-3.977c0-.222.063-.381.19-.573l5.991-9.805h-5.388c-.286 0-.476-.192-.476-.477V.476c0-.286.19-.477.476-.477H44c.286 0 .476.191.476.477v3.922c0 .222-.063.381-.19.572l-5.712 9.906h5.743c.285 0 .476.191.476.477v6.439c0 .287-.191.478-.476.478zm-18.611.038h-5.199c-.285 0-.475-.191-.475-.478V.513c0-.285.19-.476.475-.476h5.199c.285 0 .476.191.476.476V21.83c0 .287-.191.478-.476.478zM9.967 22.27H1.944c-.285 0-.476-.191-.476-.478V.476c0-.286.191-.477.476-.477h7.991c4.249 0 6.659 2.544 6.659 5.822 0 2.354-1.268 4.009-2.568 4.581 2.029.573 4.312 2.481 4.312 5.472 0 4.201-2.664 6.396-8.371 6.396zm1.403 2.046c6.107 0 11.134 4.952 11.134 11.171 0 6.189-5.027 11.139-11.134 11.139-6.106 0-11.132-4.95-11.132-11.139 0-6.219 5.026-11.171 11.132-11.171zm-.238 24.373c2.939 0 5.626 1.148 7.624 3.031a.495.495 0 0 1 .018.692l-3.601 3.926a.49.49 0 0 1-.703.021 4.802 4.802 0 0 0-3.338-1.347 4.828 4.828 0 0 0-4.822 4.839 4.825 4.825 0 0 0 4.822 4.825 4.805 4.805 0 0 0 4.084-2.257h-3.589a.494.494 0 0 1-.495-.495v-3.249c0-.274.222-.496.495-.496h10.144c.273 0 .494.222.494.496v1.184c0 6.188-5.026 11.14-11.133 11.14-6.106 0-11.133-4.952-11.133-11.14 0-6.22 5.027-11.17 11.133-11.17zm26.714-24.332h6.464c.285 0 .475.19.475.476V46.11c0 .287-.19.477-.475.477h-5.095c-.253 0-.443-.096-.57-.318l-6.259-7.12v6.961c0 .287-.19.477-.475.477h-6.577c-.285 0-.475-.19-.475-.477V24.833c0-.286.19-.476.475-.476h5.246c.177 0 .443.095.57.317l6.221 7.036v-6.877c0-.286.19-.476.475-.476zm-2.98 24.332c6.106 0 11.133 4.95 11.133 11.17 0 6.188-5.027 11.14-11.133 11.14-6.107 0-11.133-4.952-11.133-11.14 0-6.22 5.026-11.17 11.133-11.17z" filter="url(#a)"/>
</svg>
