<?xml version="1.0" encoding="UTF-8"?>
<svg width="194px" height="73px" viewBox="0 0 194 73" version="1.1" xmlns="http://www.w3.org/2000/svg" xmlns:xlink="http://www.w3.org/1999/xlink">
    <!-- Generator: sketchtool 52.5 (67469) - http://www.bohemiancoding.com/sketch -->
    <title>1D166B7F-63BA-426D-9300-D00E9C62DE3C</title>
    <desc>Created with sketchtool.</desc>
    <g id="Login" stroke="none" stroke-width="1" fill="none" fill-rule="evenodd">
        <g id="Web-Login-01" transform="translate(-40.000000, 0.000000)">
            <g id="Group-4" transform="translate(40.000000, 0.000000)">
                <rect id="Rectangle" fill="#0486FF" fill-rule="nonzero" x="81" y="0" width="113" height="73"></rect>
                <g id="Group-3">
                    <polygon id="Fill-2" fill="#000000" points="0 73 81.5392992 73 81.5392992 0 0 0"></polygon>
                    <g id="Group-39" transform="translate(26.118519, 13.272727)" fill="#FFFFFF">
                        <g id="Group-21">
                            <path d="M11.8711199,10.4113095 C11.8711199,13.1656343 10.2158996,14.6052204 6.66934423,14.6052204 L1.68403203,14.6052204 C1.50687055,14.6052204 1.38835979,14.4797328 1.38835979,14.2921417 L1.38835979,0.313078765 C1.38835979,0.125487603 1.50687055,4.4408921e-15 1.68403203,4.4408921e-15 L6.64969321,4.4408921e-15 C9.2898831,4.4408921e-15 10.787593,1.66911317 10.787593,3.8184085 C10.787593,5.36235419 9.99943603,6.44724574 9.19162801,6.82274819 C10.4526187,7.19825063 11.8711199,8.44992545 11.8711199,10.4113095" id="Fill-3"></path>
                            <path d="M12.7909103,4.4408921e-15 L16.0215378,4.4408921e-15 C16.1983969,4.4408921e-15 16.3169077,0.125487603 16.3169077,0.313078765 L16.3169077,14.2921417 C16.3169077,14.4797328 16.1983969,14.6052204 16.0215378,14.6052204 L12.7909103,14.6052204 C12.6137489,14.6052204 12.4952381,14.4797328 12.4952381,14.2921417 L12.4952381,0.313078765 C12.4952381,0.125487603 12.6137489,4.4408921e-15 12.7909103,4.4408921e-15" id="Fill-5"></path>
                            <path d="M28.0583013,10.0694198 L28.0583013,14.2921417 C28.0583013,14.480053 27.9394883,14.6052204 27.7623268,14.6052204 L18.3437448,14.6052204 C18.166281,14.6052204 18.0486772,14.480053 18.0486772,14.2921417 L18.0486772,11.6841123 C18.0486772,11.538137 18.087677,11.4337774 18.166281,11.3086099 L21.8893932,4.87833058 L18.541162,4.87833058 C18.3633959,4.87833058 18.2454898,4.7531631 18.2454898,4.56525181 L18.2454898,0.313078765 C18.2454898,0.125487603 18.3633959,4.4408921e-15 18.541162,4.4408921e-15 L27.5655143,4.4408921e-15 C27.7429781,4.4408921e-15 27.8614888,0.125487603 27.8614888,0.313078765 L27.8614888,2.88493439 C27.8614888,3.03122989 27.8218845,3.13526935 27.7429781,3.26043684 L24.1940042,9.75634104 L27.7623268,9.75634104 C27.9394883,9.75634104 28.0583013,9.88150852 28.0583013,10.0694198" id="Fill-7"></path>
                            <path d="M-4.88498131e-14,23.5014752 C-4.88498131e-14,19.422808 3.12360495,16.1761364 6.91806543,16.1761364 C10.7131306,16.1761364 13.8367355,19.422808 13.8367355,23.5014752 C13.8367355,27.5599748 10.7131306,30.8066464 6.91806543,30.8066464 C3.12360495,30.8066464 -4.88498131e-14,27.5599748 -4.88498131e-14,23.5014752" id="Fill-9"></path>
                            <path d="M15.2719577,39.6779317 C15.2719577,35.5989443 18.3952603,32.3522727 22.1900231,32.3522727 C25.9847859,32.3522727 29.1083909,35.5989443 29.1083909,39.6779317 C29.1083909,43.7364313 25.9847859,46.9827828 22.1900231,46.9827828 C18.3952603,46.9827828 15.2719577,43.7364313 15.2719577,39.6779317" id="Fill-11"></path>
                            <path d="M27.6542155,16.4885749 L27.6542155,30.4420281 C27.6542155,30.6296192 27.5360071,30.7544666 27.3591479,30.7544666 L24.1932177,30.7544666 C24.0354049,30.7544666 23.9178011,30.6920429 23.839197,30.5463877 L19.9492024,25.8764561 L19.9492024,30.4420281 C19.9492024,30.6296192 19.8309939,30.7544666 19.6541348,30.7544666 L15.5673276,30.7544666 C15.3904684,30.7544666 15.2719577,30.6296192 15.2719577,30.4420281 L15.2719577,16.4885749 C15.2719577,16.3013038 15.3904684,16.1761364 15.5673276,16.1761364 L18.8269781,16.1761364 C18.9370238,16.1761364 19.1023946,16.23856 19.1809987,16.3845354 L23.0474121,20.9981256 L23.0474121,16.4885749 C23.0474121,16.3013038 23.1650159,16.1761364 23.3421774,16.1761364 L27.3591479,16.1761364 C27.5360071,16.1761364 27.6542155,16.3013038 27.6542155,16.4885749" id="Fill-13"></path>
                            <path d="M9.45576771,41.3563284 C8.92398092,42.2523483 7.98466224,42.8365699 6.91806543,42.8365699 C5.27463565,42.8365699 3.92143629,41.4299563 3.92143629,39.6718494 C3.92143629,37.9050992 5.27463565,36.4988057 6.91806543,36.4988057 C7.7201293,36.4988057 8.45205415,36.8339728 8.99200367,37.3823409 C9.11625857,37.5081486 9.31246643,37.5027065 9.42916325,37.3685756 L11.6666584,34.794159 C11.7797274,34.6645099 11.7770065,34.4605925 11.6557748,34.3402269 C10.4141328,33.1055185 8.74409852,32.3522727 6.91776311,32.3522727 C3.12360495,32.3522727 2.93098879e-14,35.5989443 2.93098879e-14,39.6779317 C2.93098879e-14,43.7364313 3.12360495,46.9827828 6.91776311,46.9827828 C10.7128282,46.9827828 13.8364332,43.7364313 13.8364332,39.6779317 L13.8364332,38.9013171 C13.8364332,38.721729 13.6988761,38.5757536 13.5292726,38.5757536 L7.22552829,38.5757536 C7.05592488,38.5757536 6.91806543,38.721729 6.91806543,38.9013171 L6.91806543,41.0317252 C6.91806543,41.2116335 7.05592488,41.3572888 7.22552829,41.3572888 L9.45576771,41.3563284 Z" id="Fill-15"></path>
                        </g>
                    </g>
                </g>
                <g id="Group-31" transform="translate(96.000000, 23.000000)" fill="#FFFFFF">
                    <path d="M5.39185664,4.00875217 C5.39185664,2.84856985 4.47421025,2.55884655 3.70159943,2.55884655 L2.75202698,2.55884655 L2.75202698,5.45898006 L3.70159943,5.45898006 C4.47421025,5.45898006 5.39185664,5.15153175 5.39185664,4.00875217 M8.01526718,4.00875217 C8.01526718,6.38003591 6.50227566,8.01750434 3.75024868,8.01750434 L2.75202698,8.01750434 L2.75202698,11.6852918 C2.75202698,11.8386937 2.65564066,11.9411765 2.5106051,11.9411765 L0.241725936,11.9411765 C0.0966903745,11.9411765 0,11.8386937 0,11.6852918 L0,0.255884655 C0,0.102160498 0.0966903745,0 0.241725936,0 L3.75024868,0 C6.50227566,0 8.01526718,1.6377907 8.01526718,4.00875217" id="Fill-17"></path>
                    <path d="M13.7119044,5.45880511 L14.6896677,5.45880511 C15.4849026,5.45880511 16.4297919,5.15167078 16.4297919,4.00853808 C16.4297919,2.84864673 15.4849026,2.55859333 14.6896677,2.55859333 L13.7119044,2.55859333 L13.7119044,5.45880511 Z M19.2469272,11.9411765 L16.7776289,11.9411765 C16.6451941,11.9411765 16.5456332,11.890256 16.4795724,11.7706895 L14.1593023,8.01772072 L13.7119044,8.01772072 L13.7119044,11.6852849 C13.7119044,11.8390132 13.6123435,11.9411765 13.4633153,11.9411765 L11.1264518,11.9411765 C10.9774235,11.9411765 10.8778626,11.8390132 10.8778626,11.6852849 L10.8778626,0.255569279 C10.8778626,0.102163255 10.9774235,0 11.1264518,0 L14.739135,0 C17.5731769,0 19.1310859,1.63751262 19.1310859,4.00853808 C19.1310859,5.69761575 18.3518183,7.0112354 16.8768767,7.62518178 L19.4125489,11.6343644 C19.5287033,11.8219323 19.4457359,11.9411765 19.2469272,11.9411765 Z" id="Fill-19"></path>
                    <path d="M29.1634043,5.97887963 C29.1634043,4.15696242 27.8147682,2.76588497 26.0496183,2.76588497 C24.2844685,2.76588497 22.9355178,4.15696242 22.9355178,5.97887963 C22.9355178,7.78421406 24.2844685,9.1587087 26.0496183,9.1587087 C27.8147682,9.1587087 29.1634043,7.78421406 29.1634043,5.97887963 M20.0381679,5.97887963 C20.0381679,2.64980541 22.7524279,0 26.0496183,0 C29.3464941,0 32.0610687,2.64980541 32.0610687,5.97887963 C32.0610687,9.29105818 29.3464941,11.9411765 26.0496183,11.9411765 C22.7524279,11.9411765 20.0381679,9.29105818 20.0381679,5.97887963" id="Fill-21"></path>
                    <path d="M44.0083903,9.87083022 C44.0919359,9.98690978 44.1250389,10.0860937 44.0083903,10.218756 C42.9903951,11.2950733 41.505175,11.9411765 39.8528638,11.9411765 C36.4990598,11.9411765 33.778626,9.30795385 33.778626,5.97887963 C33.778626,2.61695271 36.4990598,0 39.8528638,0 C41.505175,0 42.9903951,0.629520426 44.0083903,1.72273333 C44.1250389,1.83850001 44.0919359,1.95426669 44.0083903,2.07034625 L42.5565885,3.62693876 C42.4730429,3.74301832 42.3226608,3.74301832 42.2060123,3.64383443 C41.5884054,3.11381078 40.8043378,2.76588497 39.8197608,2.76588497 C38.0675101,2.76588497 36.7156478,4.1406925 36.7156478,5.97887963 C36.7156478,7.78421406 38.0675101,9.1587087 39.8197608,9.1587087 C40.8043378,9.1587087 41.5884054,8.82767858 42.2060123,8.28107212 C42.3226608,8.18157536 42.4730429,8.19815815 42.5565885,8.31392483 L44.0083903,9.87083022 Z" id="Fill-23"></path>
                    <path d="M55.5343511,0.251220003 L55.5343511,7.15122733 C55.5343511,10.2329437 53.4882193,11.9411765 50.6591991,11.9411765 C47.8479947,11.9411765 45.8015267,10.2329437 45.8015267,7.15122733 L45.8015267,0.251220003 C45.8015267,0.100298162 45.9084217,0 46.0684281,0 L48.5774355,0 C48.7374419,0 48.8443369,0.100298162 48.8443369,0.251220003 L48.8443369,7.15122733 C48.8443369,8.39055825 49.4137714,9.11068007 50.6591991,9.11068007 C51.9224427,9.11068007 52.4918771,8.39055825 52.4918771,7.15122733 L52.4918771,0.251220003 C52.4918771,0.100298162 52.5987721,0 52.7587785,0 L55.2674498,0 C55.4277923,0 55.5343511,0.100298162 55.5343511,0.251220003" id="Fill-25"></path>
                    <path d="M61.2309516,5.45880511 L62.2087021,5.45880511 C63.0042398,5.45880511 63.9488038,5.15167078 63.9488038,4.00853808 C63.9488038,2.84864673 63.0042398,2.55859333 62.2087021,2.55859333 L61.2309516,2.55859333 L61.2309516,5.45880511 Z M66.7662156,11.9411765 L64.2966363,11.9411765 C64.1642032,11.9411765 64.0649567,11.890256 63.9985836,11.7706895 L61.6783437,8.01772072 L61.2309516,8.01772072 L61.2309516,11.6852849 C61.2309516,11.8390132 61.1317051,11.9411765 60.9823657,11.9411765 L58.6455325,11.9411765 C58.4965062,11.9411765 58.3969466,11.8390132 58.3969466,11.6852849 L58.3969466,0.255569279 C58.3969466,0.102163255 58.4965062,0 58.6455325,0 L62.2581689,0 C65.0921739,0 66.6500627,1.63751262 66.6500627,4.00853808 C66.6500627,5.69761575 65.8711183,7.0112354 64.3961959,7.62518178 L66.9318352,11.6343644 C67.047675,11.8219323 66.9647086,11.9411765 66.7662156,11.9411765 Z" id="Fill-27"></path>
                    <path d="M75,9.63821458 L75,11.6852918 C75,11.839016 74.8918126,11.9411765 74.7290195,11.9411765 L67.8282324,11.9411765 C67.6657806,11.9411765 67.5572519,11.839016 67.5572519,11.6852918 L67.5572519,0.255884655 C67.5572519,0.102482771 67.6657806,0 67.8282324,0 L74.7109314,0 C74.8737245,0 74.9819119,0.102482771 74.9819119,0.255884655 L74.9819119,2.30296189 C74.9819119,2.45636378 74.8737245,2.55884655 74.7109314,2.55884655 L70.6462244,2.55884655 L70.6462244,4.60592379 L74.4580391,4.60592379 C74.6208321,4.60592379 74.7290195,4.70840656 74.7290195,4.86180844 L74.7290195,6.90888568 C74.7290195,7.06228757 74.6208321,7.16477034 74.4580391,7.16477034 L70.6462244,7.16477034 L70.6462244,9.38232992 L74.7290195,9.38232992 C74.8918126,9.38232992 75,9.48481269 75,9.63821458" id="Fill-29"></path>
                    <path d="M6.29770992,26.6970381 L6.29770992,28.7441153 C6.29770992,28.8975172 6.20149913,29 6.05672767,29 L0.241285754,29 C0.0965143015,29 0,28.8975172 0,28.7441153 L0,17.3147082 C0,17.160984 0.0965143015,17.0588235 0.241285754,17.0588235 L2.5063368,17.0588235 C2.65080475,17.0588235 2.74731905,17.160984 2.74731905,17.3147082 L2.74731905,26.4411535 L6.05672767,26.4411535 C6.20149913,26.4411535 6.29770992,26.5433139 6.29770992,26.6970381" id="Fill-31"></path>
                    <path d="M8.31695918,17.0588235 L11.1490692,17.0588235 C11.3297049,17.0588235 11.4503817,17.160984 11.4503817,17.3147082 L11.4503817,28.7441153 C11.4503817,28.8975172 11.3297049,29 11.1490692,29 L8.31695918,29 C8.13594398,29 8.01526718,28.8975172 8.01526718,28.7441153 L8.01526718,17.3147082 C8.01526718,17.160984 8.13594398,17.0588235 8.31695918,17.0588235" id="Fill-33"></path>
                    <path d="M21.5020091,17.0588235 L23.8335022,17.0588235 C24.0081919,17.0588235 24.0875963,17.1780645 24.0240728,17.3488691 L20.1856938,28.7953567 C20.1380511,28.9316782 20.0110041,29 19.8845563,29 L17.8542006,29 C17.7271536,29 17.6321679,28.9316782 17.5845253,28.7953567 L13.7620272,17.3488691 C13.6988033,17.1780645 13.7782077,17.0588235 13.9525977,17.0588235 L16.2840909,17.0588235 C16.4108383,17.0588235 16.5061236,17.1100649 16.5534666,17.2637891 L18.8852594,25.1446497 L21.2326334,17.2637891 C21.280276,17.1100649 21.3752617,17.0588235 21.5020091,17.0588235" id="Fill-35"></path>
                    <path d="M33.2061069,26.6970381 L33.2061069,28.7441153 C33.2061069,28.8975172 33.0979195,29 32.9351264,29 L26.0343392,29 C25.8718875,29 25.7633588,28.8975172 25.7633588,28.7441153 L25.7633588,17.3147082 C25.7633588,17.160984 25.8718875,17.0588235 26.0343392,17.0588235 L32.9170383,17.0588235 C33.0798313,17.0588235 33.1880188,17.160984 33.1880188,17.3147082 L33.1880188,19.3614632 C33.1880188,19.5151873 33.0798313,19.6176701 32.9170383,19.6176701 L28.8523313,19.6176701 L28.8523313,21.6647473 L32.6641459,21.6647473 C32.826939,21.6647473 32.9351264,21.7669078 32.9351264,21.920632 L32.9351264,23.9673869 C32.9351264,24.1211111 32.826939,24.2232716 32.6641459,24.2232716 L28.8523313,24.2232716 L28.8523313,26.4411535 L32.9351264,26.4411535 C33.0979195,26.4411535 33.2061069,26.5433139 33.2061069,26.6970381" id="Fill-37"></path>
                </g>
            </g>
        </g>
    </g>
</svg>